<?xml version="1.0" standalone="no"?>
<!DOCTYPE svg PUBLIC "-//W3C//DTD SVG 20010904//EN"
 "http://www.w3.org/TR/2001/REC-SVG-20010904/DTD/svg10.dtd">
<svg version="1.0" xmlns="http://www.w3.org/2000/svg"
 width="700.000000pt" height="700.000000pt" viewBox="0 0 700.000000 700.000000"
 preserveAspectRatio="xMidYMid meet">
<metadata>
Created by potrace 1.11, written by Peter Selinger 2001-2013
</metadata>
<g transform="translate(0.000000,700.000000) scale(0.100000,-0.100000)"
fill="#000000" stroke="none">
<path d="M3427 6986 c-53 -20 -64 -31 -205 -214 -78 -101 -131 -161 -139 -158
-7 3 -79 57 -161 119 -81 63 -163 123 -182 133 -73 38 -188 16 -248 -49 -13
-14 -59 -111 -103 -217 -43 -105 -81 -195 -84 -199 -2 -5 -91 27 -197 72 -166
69 -201 80 -253 81 -66 0 -103 -15 -149 -61 -44 -43 -53 -74 -82 -294 -14
-112 -29 -207 -33 -210 -3 -4 -98 6 -211 21 -252 34 -281 31 -351 -39 -70 -70
-73 -99 -39 -351 15 -113 25 -208 21 -211 -3 -3 -97 -18 -209 -33 -219 -28
-251 -38 -295 -82 -46 -46 -61 -83 -61 -149 1 -52 12 -86 81 -250 44 -104 77
-193 74 -197 -3 -3 -89 -41 -190 -82 -101 -42 -199 -88 -218 -102 -48 -37 -77
-98 -77 -164 0 -71 10 -88 155 -276 66 -86 119 -160 117 -165 -2 -6 -75 -65
-163 -133 -196 -150 -220 -180 -220 -275 0 -98 21 -125 220 -276 91 -69 165
-130 165 -134 0 -5 -54 -79 -120 -165 -145 -189 -154 -205 -154 -276 0 -66 29
-128 76 -163 18 -14 116 -59 218 -101 102 -43 188 -80 191 -84 3 -4 -29 -90
-72 -192 -85 -204 -96 -246 -79 -309 13 -49 66 -112 113 -134 17 -9 122 -27
232 -42 110 -14 205 -27 211 -29 7 -3 2 -69 -17 -216 -33 -256 -29 -288 43
-356 69 -65 101 -68 348 -34 113 15 208 25 211 21 4 -3 19 -98 33 -210 15
-113 33 -218 40 -235 19 -44 88 -103 138 -116 62 -17 95 -9 304 79 104 43 192
76 196 72 4 -3 41 -89 83 -191 42 -102 88 -200 101 -218 54 -70 176 -99 252
-58 18 9 103 71 188 137 85 65 158 119 163 119 5 0 66 -74 135 -164 70 -91
138 -174 153 -185 60 -48 167 -51 234 -6 20 13 94 98 164 189 70 91 131 166
136 166 5 0 78 -54 163 -119 85 -66 170 -128 188 -137 76 -41 198 -12 252 58
13 18 59 116 101 218 42 102 79 188 83 191 4 4 92 -29 196 -72 209 -88 242
-96 304 -79 50 13 119 72 138 116 7 17 25 122 40 235 14 112 29 207 33 210 3
4 98 -6 211 -22 174 -25 212 -27 254 -18 69 16 131 75 151 143 14 47 13 66
-13 265 -19 144 -25 214 -18 217 6 2 101 15 211 29 236 30 273 43 320 120 25
40 30 59 30 109 -1 53 -11 85 -82 254 -70 168 -79 194 -64 201 9 5 101 43 204
86 211 87 245 113 267 205 22 91 7 123 -147 322 -62 82 -116 154 -119 161 -3
8 56 60 158 139 184 142 195 152 214 205 25 71 12 149 -33 203 -14 17 -97 85
-184 152 -88 66 -159 124 -159 128 0 5 53 77 119 162 160 208 173 236 151 330
-21 86 -68 123 -250 198 -85 35 -174 71 -197 81 l-41 18 81 193 c71 169 81
201 82 254 0 50 -5 69 -30 109 -48 77 -84 91 -331 123 l-209 28 3 29 c2 17 14
113 28 215 22 171 23 188 9 236 -20 68 -82 127 -151 143 -42 9 -80 7 -254 -18
-113 -16 -208 -26 -211 -22 -4 3 -19 98 -33 210 -29 220 -38 251 -82 294 -46
46 -83 61 -149 61 -52 -1 -87 -12 -253 -81 -106 -45 -194 -77 -197 -73 -3 4
-41 94 -85 200 -44 107 -90 204 -102 218 -60 64 -175 86 -248 48 -19 -10 -101
-70 -182 -133 -82 -62 -154 -116 -161 -119 -8 -3 -62 58 -141 161 -72 94 -144
177 -166 191 -47 31 -129 40 -183 20z m-815 -1610 c173 -33 314 -110 443 -241
170 -172 255 -393 242 -630 -7 -130 -28 -207 -87 -330 -120 -248 -344 -415
-624 -464 -260 -46 -564 59 -748 258 -303 327 -305 823 -3 1149 137 148 271
219 500 266 48 9 209 5 277 -8z m2356 -292 c107 -44 160 -168 117 -272 -22
-52 -2833 -2866 -2890 -2893 -173 -81 -354 104 -274 281 28 64 2815 2850 2880
2880 53 24 116 26 167 4z m-253 -1803 c118 -24 198 -58 299 -125 502 -334 500
-1068 -3 -1404 -447 -299 -1053 -106 -1254 398 -145 366 -3 800 333 1015 189
120 408 161 625 116z"/>
<path d="M2370 4959 c-119 -23 -245 -123 -297 -235 -117 -256 40 -549 319
-594 275 -44 522 204 477 479 -38 239 -263 396 -499 350z"/>
<path d="M4472 2869 c-80 -14 -161 -56 -223 -118 -235 -236 -117 -634 209
-707 63 -14 88 -15 145 -6 187 29 330 172 359 359 19 120 -24 253 -111 346
-91 99 -243 149 -379 126z"/>
</g>
</svg>
